<svg width="24" height="24" viewBox="0 0 24 24" fill="none" xmlns="http://www.w3.org/2000/svg">
<path d="M10.938 2.56801C11.565 2.08801 12.4365 2.08801 13.0635 2.56801L20.5065 8.25751C21.4545 8.98201 20.946 10.494 19.755 10.5H4.245C3.0555 10.494 2.5455 8.98201 3.495 8.25751L10.938 2.56801ZM12 7.87501C12.2984 7.87501 12.5845 7.75648 12.7955 7.5455C13.0065 7.33452 13.125 7.04838 13.125 6.75001C13.125 6.45164 13.0065 6.16549 12.7955 5.95451C12.5845 5.74353 12.2984 5.62501 12 5.62501C11.7016 5.62501 11.4155 5.74353 11.2045 5.95451C10.9935 6.16549 10.875 6.45164 10.875 6.75001C10.875 7.04838 10.9935 7.33452 11.2045 7.5455C11.4155 7.75648 11.7016 7.87501 12 7.87501ZM5.25 12V16.5H7.5V12H5.25ZM9 12V15.075C9.615 14.448 10.386 13.9755 11.25 13.7175V12H9ZM4.875 18H7.5525C7.40764 19.0228 7.5651 20.0656 8.0055 21H3.75C3.55109 21 3.36032 20.921 3.21967 20.7803C3.07902 20.6397 3 20.4489 3 20.25V19.875C3 18.84 3.84 18 4.875 18ZM18.75 12V13.5H16.5V12H18.75ZM15 12V13.5H12.75V12H15ZM12.75 15C11.7554 15 10.8016 15.3951 10.0983 16.0984C9.39509 16.8016 9 17.7554 9 18.75C9 19.7446 9.39509 20.6984 10.0983 21.4017C10.8016 22.1049 11.7554 22.5 12.75 22.5H13.5C13.6989 22.5 13.8897 22.421 14.0303 22.2803C14.171 22.1397 14.25 21.9489 14.25 21.75C14.25 21.5511 14.171 21.3603 14.0303 21.2197C13.8897 21.079 13.6989 21 13.5 21H12.75C12.4545 21 12.1619 20.9418 11.889 20.8287C11.616 20.7157 11.3679 20.5499 11.159 20.341C10.9501 20.1321 10.7843 19.884 10.6713 19.611C10.5582 19.3381 10.5 19.0455 10.5 18.75C10.5 18.4545 10.5582 18.162 10.6713 17.889C10.7843 17.616 10.9501 17.3679 11.159 17.159C11.3679 16.9501 11.616 16.7844 11.889 16.6713C12.1619 16.5582 12.4545 16.5 12.75 16.5H13.5C13.6989 16.5 13.8897 16.421 14.0303 16.2803C14.171 16.1397 14.25 15.9489 14.25 15.75C14.25 15.5511 14.171 15.3603 14.0303 15.2197C13.8897 15.079 13.6989 15 13.5 15H12.75ZM18 15C17.8011 15 17.6103 15.079 17.4697 15.2197C17.329 15.3603 17.25 15.5511 17.25 15.75C17.25 15.9489 17.329 16.1397 17.4697 16.2803C17.6103 16.421 17.8011 16.5 18 16.5H18.75C19.3467 16.5 19.919 16.7371 20.341 17.159C20.7629 17.581 21 18.1533 21 18.75C21 19.3467 20.7629 19.919 20.341 20.341C19.919 20.763 19.3467 21 18.75 21H18C17.8011 21 17.6103 21.079 17.4697 21.2197C17.329 21.3603 17.25 21.5511 17.25 21.75C17.25 21.9489 17.329 22.1397 17.4697 22.2803C17.6103 22.421 17.8011 22.5 18 22.5H18.75C19.7446 22.5 20.6984 22.1049 21.4016 21.4017C22.1049 20.6984 22.5 19.7446 22.5 18.75C22.5 17.7554 22.1049 16.8016 21.4016 16.0984C20.6984 15.3951 19.7446 15 18.75 15H18ZM12 18.75C12 18.5511 12.079 18.3603 12.2197 18.2197C12.3603 18.079 12.5511 18 12.75 18H18.75C18.9489 18 19.1397 18.079 19.2803 18.2197C19.421 18.3603 19.5 18.5511 19.5 18.75C19.5 18.9489 19.421 19.1397 19.2803 19.2803C19.1397 19.421 18.9489 19.5 18.75 19.5H12.75C12.5511 19.5 12.3603 19.421 12.2197 19.2803C12.079 19.1397 12 18.9489 12 18.75Z" fill="#FCFCFC"/>
</svg>
