<svg width="64" height="21" viewBox="0 0 64 21" fill="none" xmlns="http://www.w3.org/2000/svg">
<mask id="path-1-outside-1_970_176" maskUnits="userSpaceOnUse" x="-0.668945" y="-0.414001" width="65" height="21" fill="black">
<rect fill="white" x="-0.668945" y="-0.414001" width="65" height="21"/>
<path d="M0.599921 11.732C0.599921 8.938 2.75592 7.002 5.32992 6.188C6.45192 5.814 7.66192 5.682 8.82792 5.682C13.6899 5.682 18.1119 7.354 20.3999 11.336V0.599998H22.5339V19.564H12.7879C7.88192 19.564 0.599921 17.826 0.599921 11.732ZM2.75592 11.732C2.75592 16.132 8.60792 17.474 12.7879 17.474H19.8279C19.6519 11.204 15.5819 7.75 8.82792 7.75C7.15592 7.75 5.48392 8.102 4.18592 9.048C3.32792 9.73 2.75592 10.654 2.75592 11.732ZM23.7532 6.298H27.5372V2.822H29.8692V6.298H38.1412V8.344H29.8692V14.482C29.8692 16.66 30.7272 17.804 33.0812 17.804C35.0832 17.804 36.9532 17.32 38.7132 16.418L39.1312 16.198L40.0552 18.112L39.6812 18.288C37.6572 19.256 35.4352 19.938 33.0812 19.938C29.2312 19.938 27.5372 17.892 27.5372 14.482V8.344H23.7532V6.298ZM41.2595 19.608V0.599998H43.4155V10.412C45.7695 7.046 49.8395 5.418 54.1515 5.418C58.5515 5.418 63.3915 7.596 63.3915 12.502V19.586H61.2575V12.502C61.2575 9.048 57.6495 7.508 54.1515 7.508C48.2995 7.508 43.8115 10.808 43.4595 16.748C43.4375 17.166 43.4155 17.562 43.4155 17.958V19.608H41.2595Z"/>
</mask>
<path d="M0.599921 11.732C0.599921 8.938 2.75592 7.002 5.32992 6.188C6.45192 5.814 7.66192 5.682 8.82792 5.682C13.6899 5.682 18.1119 7.354 20.3999 11.336V0.599998H22.5339V19.564H12.7879C7.88192 19.564 0.599921 17.826 0.599921 11.732ZM2.75592 11.732C2.75592 16.132 8.60792 17.474 12.7879 17.474H19.8279C19.6519 11.204 15.5819 7.75 8.82792 7.75C7.15592 7.75 5.48392 8.102 4.18592 9.048C3.32792 9.73 2.75592 10.654 2.75592 11.732ZM23.7532 6.298H27.5372V2.822H29.8692V6.298H38.1412V8.344H29.8692V14.482C29.8692 16.66 30.7272 17.804 33.0812 17.804C35.0832 17.804 36.9532 17.32 38.7132 16.418L39.1312 16.198L40.0552 18.112L39.6812 18.288C37.6572 19.256 35.4352 19.938 33.0812 19.938C29.2312 19.938 27.5372 17.892 27.5372 14.482V8.344H23.7532V6.298ZM41.2595 19.608V0.599998H43.4155V10.412C45.7695 7.046 49.8395 5.418 54.1515 5.418C58.5515 5.418 63.3915 7.596 63.3915 12.502V19.586H61.2575V12.502C61.2575 9.048 57.6495 7.508 54.1515 7.508C48.2995 7.508 43.8115 10.808 43.4595 16.748C43.4375 17.166 43.4155 17.562 43.4155 17.958V19.608H41.2595Z" fill="white"/>
<path d="M5.32992 6.188L5.51086 6.76014L5.51966 6.75721L5.32992 6.188ZM20.3999 11.336L19.8797 11.6349L20.9999 13.5846V11.336H20.3999ZM20.3999 0.599998V-1.90735e-06H19.7999V0.599998H20.3999ZM22.5339 0.599998H23.1339V-1.90735e-06H22.5339V0.599998ZM22.5339 19.564V20.164H23.1339V19.564H22.5339ZM19.8279 17.474V18.074H20.445L20.4277 17.4572L19.8279 17.474ZM4.18592 9.048L3.83253 8.56311L3.82239 8.5705L3.81257 8.5783L4.18592 9.048ZM0.599921 11.732H1.19992C1.19992 9.30188 3.07276 7.53109 5.51083 6.76007L5.32992 6.188L5.14901 5.61592C2.43908 6.47291 -7.88569e-05 8.57411 -7.88569e-05 11.732H0.599921ZM5.32992 6.188L5.51966 6.75721C6.56197 6.40977 7.70348 6.282 8.82792 6.282V5.682V5.082C7.62036 5.082 6.34187 5.21823 5.14018 5.61879L5.32992 6.188ZM8.82792 5.682V6.282C13.5701 6.282 17.7388 7.90902 19.8797 11.6349L20.3999 11.336L20.9202 11.0371C18.485 6.79898 13.8097 5.082 8.82792 5.082V5.682ZM20.3999 11.336H20.9999V0.599998H20.3999H19.7999V11.336H20.3999ZM20.3999 0.599998V1.2H22.5339V0.599998V-1.90735e-06H20.3999V0.599998ZM22.5339 0.599998H21.9339V19.564H22.5339H23.1339V0.599998H22.5339ZM22.5339 19.564V18.964H12.7879V19.564V20.164H22.5339V19.564ZM12.7879 19.564V18.964C10.3886 18.964 7.44177 18.5366 5.11884 17.3948C2.81556 16.2627 1.19992 14.4773 1.19992 11.732H0.599921H-7.88569e-05C-7.88569e-05 15.0807 2.02528 17.2113 4.5895 18.4717C7.13407 19.7224 10.2813 20.164 12.7879 20.164V19.564ZM2.75592 11.732H2.15592C2.15592 14.2677 3.86592 15.867 5.96003 16.801C8.04963 17.7329 10.6497 18.074 12.7879 18.074V17.474V16.874C10.7462 16.874 8.33022 16.5441 6.44881 15.705C4.57192 14.868 3.35592 13.5963 3.35592 11.732H2.75592ZM12.7879 17.474V18.074H19.8279V17.474V16.874H12.7879V17.474ZM19.8279 17.474L20.4277 17.4572C20.336 14.1902 19.2235 11.5876 17.1896 9.80908C15.1648 8.03848 12.3017 7.15 8.82792 7.15V7.75V8.35C12.1082 8.35 14.657 9.18851 16.3997 10.7124C18.1333 12.2284 19.1439 14.4878 19.2282 17.4908L19.8279 17.474ZM8.82792 7.75V7.15C7.08331 7.15 5.2698 7.51561 3.83253 8.56311L4.18592 9.048L4.53931 9.53288C5.69804 8.68839 7.22854 8.35 8.82792 8.35V7.75ZM4.18592 9.048L3.81257 8.5783C2.85332 9.34079 2.15592 10.4235 2.15592 11.732H2.75592H3.35592C3.35592 10.8845 3.80253 10.1192 4.55927 9.51769L4.18592 9.048ZM23.7532 6.298V5.698H23.1532V6.298H23.7532ZM27.5372 6.298V6.898H28.1372V6.298H27.5372ZM27.5372 2.822V2.222H26.9372V2.822H27.5372ZM29.8692 2.822H30.4692V2.222H29.8692V2.822ZM29.8692 6.298H29.2692V6.898H29.8692V6.298ZM38.1412 6.298H38.7412V5.698H38.1412V6.298ZM38.1412 8.344V8.944H38.7412V8.344H38.1412ZM29.8692 8.344V7.744H29.2692V8.344H29.8692ZM38.7132 16.418L38.9869 16.952L38.9927 16.9489L38.7132 16.418ZM39.1312 16.198L39.6715 15.9371L39.4015 15.3777L38.8518 15.667L39.1312 16.198ZM40.0552 18.112L40.3107 18.6549L40.859 18.3969L40.5955 17.8511L40.0552 18.112ZM39.6812 18.288L39.4257 17.7451L39.4223 17.7467L39.6812 18.288ZM27.5372 8.344H28.1372V7.744H27.5372V8.344ZM23.7532 8.344H23.1532V8.944H23.7532V8.344ZM23.7532 6.298V6.898H27.5372V6.298V5.698H23.7532V6.298ZM27.5372 6.298H28.1372V2.822H27.5372H26.9372V6.298H27.5372ZM27.5372 2.822V3.422H29.8692V2.822V2.222H27.5372V2.822ZM29.8692 2.822H29.2692V6.298H29.8692H30.4692V2.822H29.8692ZM29.8692 6.298V6.898H38.1412V6.298V5.698H29.8692V6.298ZM38.1412 6.298H37.5412V8.344H38.1412H38.7412V6.298H38.1412ZM38.1412 8.344V7.744H29.8692V8.344V8.944H38.1412V8.344ZM29.8692 8.344H29.2692V14.482H29.8692H30.4692V8.344H29.8692ZM29.8692 14.482H29.2692C29.2692 15.6309 29.4922 16.6432 30.149 17.3639C30.8167 18.0966 31.8169 18.404 33.0812 18.404V17.804V17.204C31.9915 17.204 31.3857 16.9394 31.0359 16.5556C30.6752 16.1598 30.4692 15.5111 30.4692 14.482H29.8692ZM33.0812 17.804V18.404C35.1844 18.404 37.1477 17.8945 38.9869 16.952L38.7132 16.418L38.4396 15.884C36.7587 16.7455 34.982 17.204 33.0812 17.204V17.804ZM38.7132 16.418L38.9927 16.9489L39.4107 16.7289L39.1312 16.198L38.8518 15.667L38.4338 15.887L38.7132 16.418ZM39.1312 16.198L38.5909 16.4588L39.5149 18.3728L40.0552 18.112L40.5955 17.8511L39.6715 15.9371L39.1312 16.198ZM40.0552 18.112L39.7997 17.5691L39.4257 17.7451L39.6812 18.288L39.9367 18.8309L40.3107 18.6549L40.0552 18.112ZM39.6812 18.288L39.4223 17.7467C37.4509 18.6896 35.3189 19.338 33.0812 19.338V19.938V20.538C35.5515 20.538 37.8635 19.8224 39.9401 18.8293L39.6812 18.288ZM33.0812 19.938V19.338C31.2583 19.338 30.0527 18.8552 29.2972 18.0721C28.5379 17.2851 28.1372 16.0956 28.1372 14.482H27.5372H26.9372C26.9372 16.2784 27.3835 17.8169 28.4337 18.9053C29.4877 19.9978 31.0541 20.538 33.0812 20.538V19.938ZM27.5372 14.482H28.1372V8.344H27.5372H26.9372V14.482H27.5372ZM27.5372 8.344V7.744H23.7532V8.344V8.944H27.5372V8.344ZM23.7532 8.344H24.3532V6.298H23.7532H23.1532V8.344H23.7532ZM41.2595 19.608H40.6595V20.208H41.2595V19.608ZM41.2595 0.599998V-1.90735e-06H40.6595V0.599998H41.2595ZM43.4155 0.599998H44.0155V-1.90735e-06H43.4155V0.599998ZM43.4155 10.412H42.8155V12.3169L43.9072 10.7559L43.4155 10.412ZM63.3915 19.586V20.186H63.9915V19.586H63.3915ZM61.2575 19.586H60.6575V20.186H61.2575V19.586ZM43.4595 16.748L42.8606 16.7125L42.8604 16.7165L43.4595 16.748ZM43.4155 19.608V20.208H44.0155V19.608H43.4155ZM41.2595 19.608H41.8595V0.599998H41.2595H40.6595V19.608H41.2595ZM41.2595 0.599998V1.2H43.4155V0.599998V-1.90735e-06H41.2595V0.599998ZM43.4155 0.599998H42.8155V10.412H43.4155H44.0155V0.599998H43.4155ZM43.4155 10.412L43.9072 10.7559C46.1199 7.59195 49.9785 6.018 54.1515 6.018V5.418V4.818C49.7005 4.818 45.4192 6.50004 42.9238 10.0681L43.4155 10.412ZM54.1515 5.418V6.018C56.2651 6.018 58.4526 6.54322 60.0918 7.62152C61.71 8.68602 62.7915 10.2812 62.7915 12.502H63.3915H63.9915C63.9915 9.81682 62.653 7.86998 60.7513 6.61898C58.8705 5.38177 56.438 4.818 54.1515 4.818V5.418ZM63.3915 12.502H62.7915V19.586H63.3915H63.9915V12.502H63.3915ZM63.3915 19.586V18.986H61.2575V19.586V20.186H63.3915V19.586ZM61.2575 19.586H61.8575V12.502H61.2575H60.6575V19.586H61.2575ZM61.2575 12.502H61.8575C61.8575 10.5253 60.8091 9.10032 59.3287 8.19749C57.8694 7.30755 55.9758 6.908 54.1515 6.908V7.508V8.108C55.8252 8.108 57.4846 8.47845 58.7039 9.222C59.902 9.95268 60.6575 11.0247 60.6575 12.502H61.2575ZM54.1515 7.508V6.908C51.1161 6.908 48.387 7.76418 46.3609 9.43792C44.326 11.1189 43.0457 13.5882 42.8606 16.7125L43.4595 16.748L44.0585 16.7835C44.2253 13.9678 45.3651 11.817 47.1252 10.3631C48.8941 8.90182 51.335 8.108 54.1515 8.108V7.508ZM43.4595 16.748L42.8604 16.7165C42.8386 17.1298 42.8155 17.543 42.8155 17.958H43.4155H44.0155C44.0155 17.581 44.0365 17.2022 44.0587 16.7795L43.4595 16.748ZM43.4155 17.958H42.8155V19.608H43.4155H44.0155V17.958H43.4155ZM43.4155 19.608V19.008H41.2595V19.608V20.208H43.4155V19.608Z" fill="#FCFCFC" mask="url(#path-1-outside-1_970_176)"/>
</svg>
