<svg width="12" height="12" viewBox="0 0 12 12" fill="none" xmlns="http://www.w3.org/2000/svg">
<g clip-path="url(#clip0_11880_7247)">
<path d="M3.99116 1.93287L3.65687 2.01001C3.68715 2.14176 3.69093 2.27822 3.668 2.41144C3.64507 2.54467 3.59589 2.67201 3.52331 2.78606C3.45074 2.90011 3.35621 2.99859 3.24524 3.07579C3.13426 3.15299 3.00904 3.20735 2.87687 3.23572C2.60885 3.2921 2.32941 3.24108 2.09861 3.09363C1.86781 2.94617 1.70407 2.71405 1.64259 2.44715L0.974014 2.5843C0.882328 2.6043 0.795649 2.64269 0.719214 2.69713C0.64278 2.75158 0.578176 2.82095 0.529306 2.90107C0.480436 2.98118 0.448315 3.07037 0.434883 3.16325C0.421451 3.25613 0.426987 3.35076 0.451157 3.44144C0.451157 3.44144 0.759728 4.87287 1.11973 6.4843M10.4197 1.9243C10.3685 2.06862 10.2885 2.20105 10.1846 2.31355C10.0807 2.42605 9.95504 2.51629 9.81523 2.57879C9.67542 2.6413 9.52437 2.67477 9.37125 2.67717C9.21812 2.67958 9.0661 2.65088 8.92439 2.5928C8.78269 2.53473 8.65424 2.44849 8.54685 2.33931C8.43946 2.23013 8.35534 2.10028 8.29961 1.95764C8.24388 1.81499 8.21768 1.66252 8.22261 1.50945C8.22755 1.35639 8.2635 1.20591 8.3283 1.06715L7.63401 0.741439C7.44862 0.664179 7.24024 0.663148 7.0541 0.738569C6.86795 0.813991 6.71906 0.95978 6.63973 1.1443L3.75973 7.9243L3.38259 8.78144C3.30533 8.96683 3.30429 9.17521 3.37972 9.36136C3.45514 9.54751 3.60093 9.6964 3.78544 9.77573L7.26544 11.2586C7.45083 11.3358 7.65921 11.3369 7.84536 11.2615C8.03151 11.186 8.1804 11.0402 8.25973 10.8557L11.5169 3.19287C11.5887 3.01468 11.5906 2.81595 11.5223 2.63639C11.454 2.45683 11.3204 2.30967 11.1483 2.2243L10.4197 1.9243Z" stroke="#00AD55" stroke-linecap="round" stroke-linejoin="round"/>
</g>
<defs>
<clipPath id="clip0_11880_7247">
<rect width="12" height="12" fill="white"/>
</clipPath>
</defs>
</svg>
