<svg width="24" height="24" viewBox="0 0 24 24" fill="none" xmlns="http://www.w3.org/2000/svg">
<path d="M11.9998 11.5V20M8.99977 17L11.9998 20L14.9998 17M7.99977 7.036C8.74772 7.14413 9.44058 7.49143 9.97477 8.026M17.4998 14C19.0188 14 19.9998 12.769 19.9998 11.25C19.9997 10.6486 19.8025 10.0638 19.4384 9.58521C19.0743 9.10659 18.5633 8.76052 17.9838 8.6C17.8946 7.47846 17.4298 6.41977 16.6645 5.5951C15.8991 4.77042 14.878 4.22797 13.7663 4.05543C12.6545 3.88289 11.517 4.09036 10.5378 4.64429C9.55849 5.19822 8.79467 6.06624 8.36977 7.108C7.4752 6.86003 6.51875 6.97757 5.71085 7.43479C4.90294 7.892 4.30975 8.65143 4.06177 9.546C3.81379 10.4406 3.93134 11.397 4.38856 12.2049C4.84577 13.0128 5.6052 13.606 6.49977 13.854" stroke="black" stroke-width="1.2" stroke-linecap="round" stroke-linejoin="round"/>
</svg>
